<?xml version="1.0" encoding="UTF-8" ?>
<!DOCTYPE svg PUBLIC "-//W3C//DTD SVG 1.1//EN" "http://www.w3.org/Graphics/SVG/1.1/DTD/svg11.dtd">
<svg viewBox="586 0 1172 853" version="1.1" xmlns="http://www.w3.org/2000/svg">
<path fill="none" d=" M 0.00 0.00 L 577.70 0.00 C 559.75 1.43 541.81 4.40 524.88 10.67 C 506.73 17.27 489.29 26.82 475.56 40.56 C 462.39 54.42 450.99 70.37 444.58 88.51 C 439.28 103.41 437.45 119.33 437.53 135.07 C 437.65 140.46 435.02 145.29 433.44 150.29 C 430.83 158.05 429.99 166.42 431.41 174.51 C 433.26 184.37 436.21 194.02 437.44 204.01 C 433.65 207.35 429.59 210.78 427.73 215.63 C 425.62 221.16 426.27 227.28 427.39 232.97 C 429.16 241.26 431.07 249.54 433.50 257.68 C 434.55 260.95 434.69 264.44 434.16 267.82 C 430.54 292.40 426.76 316.96 422.15 341.37 C 420.48 349.75 422.07 358.24 423.81 366.46 C 381.93 382.06 340.02 397.57 298.12 413.11 C 292.16 415.22 286.38 418.10 280.04 418.90 C 228.47 424.39 176.90 430.17 125.59 437.84 C 106.27 440.89 86.84 443.69 67.95 448.90 C 64.02 450.13 59.48 451.28 57.09 454.96 C 54.71 458.71 53.47 463.04 52.16 467.24 C 48.86 478.83 46.43 490.64 44.12 502.46 C 35.28 550.39 28.94 598.75 22.84 647.09 C 16.94 693.99 11.71 740.98 6.65 787.97 C 4.31 808.82 2.62 829.74 0.00 850.56 L 0.00 0.00 Z" />
<path fill="#020202" d=" M 577.70 0.00 L 597.33 0.00 C 613.72 1.25 630.13 3.74 645.72 9.13 C 662.80 14.91 679.19 23.29 692.95 35.05 C 702.87 43.91 711.33 54.35 718.51 65.53 C 730.37 84.05 736.50 106.03 736.63 127.98 C 736.94 139.65 736.21 151.33 736.41 163.00 C 736.64 174.88 735.29 186.71 734.43 198.54 C 734.42 200.77 733.81 203.52 735.89 205.08 C 739.85 208.82 744.32 212.74 745.28 218.41 C 747.11 229.16 743.03 239.65 740.88 250.03 C 739.53 257.12 735.05 263.76 736.47 271.20 C 739.08 288.24 744.36 304.70 748.76 321.32 C 750.57 327.88 751.25 334.78 750.26 341.53 C 748.99 349.53 747.49 357.50 745.68 365.39 C 762.26 372.03 779.14 377.89 795.84 384.21 C 825.20 395.13 854.59 405.94 883.92 416.94 C 890.69 419.48 898.02 419.40 905.11 420.29 C 938.80 423.98 972.49 427.67 1006.08 432.21 C 1032.28 435.67 1058.47 439.31 1084.42 444.31 C 1093.00 446.18 1101.75 447.70 1109.92 451.01 C 1115.93 453.37 1117.47 460.28 1119.35 465.75 C 1126.21 489.63 1130.02 514.24 1134.11 538.71 C 1140.92 581.60 1146.41 624.69 1151.70 667.79 C 1157.53 716.35 1162.98 764.95 1168.05 813.60 C 1169.26 825.93 1170.42 838.27 1172.00 850.56 L 1172.00 853.00 L 0.00 853.00 L 0.00 850.56 C 2.62 829.74 4.31 808.82 6.65 787.97 C 11.71 740.98 16.94 693.99 22.84 647.09 C 28.94 598.75 35.28 550.39 44.12 502.46 C 46.43 490.64 48.86 478.83 52.16 467.24 C 53.47 463.04 54.71 458.71 57.09 454.96 C 59.48 451.28 64.02 450.13 67.95 448.90 C 86.84 443.69 106.27 440.89 125.59 437.84 C 176.90 430.17 228.47 424.39 280.04 418.90 C 286.38 418.10 292.16 415.22 298.12 413.11 C 340.02 397.57 381.93 382.06 423.81 366.46 C 422.07 358.24 420.48 349.75 422.15 341.37 C 426.76 316.96 430.54 292.40 434.16 267.82 C 434.69 264.44 434.55 260.95 433.50 257.68 C 431.07 249.54 429.16 241.26 427.39 232.97 C 426.27 227.28 425.62 221.16 427.73 215.63 C 429.59 210.78 433.65 207.35 437.44 204.01 C 436.21 194.02 433.26 184.37 431.41 174.51 C 429.99 166.42 430.83 158.05 433.44 150.29 C 435.02 145.29 437.65 140.46 437.53 135.07 C 437.45 119.33 439.28 103.41 444.58 88.51 C 450.99 70.37 462.39 54.42 475.56 40.56 C 489.29 26.82 506.73 17.27 524.88 10.67 C 541.81 4.40 559.75 1.43 577.70 0.00 Z" />
<path fill="none" d=" M 597.33 0.00 L 1172.00 0.00 L 1172.00 850.56 C 1170.42 838.27 1169.26 825.93 1168.05 813.60 C 1162.98 764.95 1157.53 716.35 1151.70 667.79 C 1146.41 624.69 1140.92 581.60 1134.11 538.71 C 1130.02 514.24 1126.21 489.63 1119.35 465.75 C 1117.47 460.28 1115.93 453.37 1109.92 451.01 C 1101.75 447.70 1093.00 446.18 1084.42 444.31 C 1058.47 439.31 1032.28 435.67 1006.08 432.21 C 972.49 427.67 938.80 423.98 905.11 420.29 C 898.02 419.40 890.69 419.48 883.92 416.94 C 854.59 405.94 825.20 395.13 795.84 384.21 C 779.14 377.89 762.26 372.03 745.68 365.39 C 747.49 357.50 748.99 349.53 750.26 341.53 C 751.25 334.78 750.57 327.88 748.76 321.32 C 744.36 304.70 739.08 288.24 736.47 271.20 C 735.05 263.76 739.53 257.12 740.88 250.03 C 743.03 239.65 747.11 229.16 745.28 218.41 C 744.32 212.74 739.85 208.82 735.89 205.08 C 733.81 203.52 734.42 200.77 734.43 198.54 C 735.29 186.71 736.64 174.88 736.41 163.00 C 736.21 151.33 736.94 139.65 736.63 127.98 C 736.50 106.03 730.37 84.05 718.51 65.53 C 711.33 54.35 702.87 43.91 692.95 35.05 C 679.19 23.29 662.80 14.91 645.72 9.13 C 630.13 3.74 613.72 1.25 597.33 0.00 Z" />
<path fill="#fefefe" d=" M 523.24 21.38 C 543.46 13.33 565.25 9.40 587.00 9.46 C 609.78 9.26 632.68 13.36 653.70 22.24 C 667.92 28.36 681.54 36.44 692.44 47.55 C 703.66 59.56 713.62 73.09 719.63 88.49 C 727.28 107.63 728.22 128.64 727.10 148.99 C 726.40 156.32 726.91 163.69 726.74 171.04 C 726.63 180.69 725.56 190.29 724.89 199.92 C 711.31 195.45 697.10 193.46 682.97 191.71 C 654.46 188.17 625.70 187.29 597.00 187.58 C 562.97 187.50 528.85 187.05 494.99 191.02 C 478.61 192.87 462.17 195.09 446.40 200.06 C 445.05 190.20 441.90 180.70 440.47 170.87 C 439.30 161.82 442.01 152.88 445.63 144.69 C 447.37 141.03 447.03 136.92 447.08 132.99 C 447.04 120.48 448.51 107.91 452.11 95.91 C 457.30 79.04 467.14 63.95 478.89 50.92 C 490.79 37.41 506.72 28.11 523.24 21.38 Z" />
<path fill="#fefefe" d=" M 574.37 239.37 C 577.46 235.68 582.06 232.88 587.04 233.46 C 592.57 233.72 596.73 237.98 599.83 242.16 C 607.16 252.51 612.10 264.69 621.47 273.51 C 633.78 284.92 650.40 290.90 666.97 292.14 C 688.31 293.75 709.35 286.38 727.61 275.86 C 729.64 286.63 732.17 297.31 735.24 307.83 C 737.24 315.28 739.63 322.64 740.96 330.25 C 742.01 335.85 740.68 341.48 739.72 346.99 C 736.35 367.76 729.06 387.65 721.03 407.02 C 716.57 416.91 712.55 427.23 705.89 435.89 C 695.63 446.90 689.27 460.93 678.59 471.58 C 666.47 484.54 649.89 492.58 632.76 496.52 C 611.76 501.53 589.99 501.34 568.56 500.61 C 549.41 499.48 529.91 495.68 513.17 485.89 C 501.37 479.12 491.65 469.17 484.05 457.96 C 477.63 448.74 472.43 438.59 464.60 430.41 C 456.13 419.60 450.16 407.09 444.33 394.73 C 439.62 384.24 435.38 373.47 432.68 362.26 C 431.22 356.16 430.27 349.79 431.42 343.55 C 435.61 320.48 439.50 297.35 442.73 274.12 C 451.33 280.93 461.84 284.52 472.09 288.03 C 489.00 293.59 507.63 293.85 524.60 288.39 C 538.11 283.97 550.93 275.87 558.72 263.74 C 564.28 255.84 568.12 246.78 574.37 239.37 Z" />
<path fill="#020202" d=" M 613.71 280.64 C 617.60 282.96 621.77 286.21 622.47 290.97 C 618.74 298.95 613.24 307.28 604.75 310.71 C 593.77 314.17 581.84 313.87 570.66 311.47 C 563.75 310.11 558.87 304.56 554.67 299.33 C 552.56 296.51 550.42 293.50 549.77 289.97 C 549.35 287.14 551.84 285.19 553.60 283.40 C 553.70 286.40 552.43 289.86 554.51 292.46 C 558.08 297.45 562.57 302.17 568.23 304.74 C 575.27 306.90 582.77 306.53 590.05 306.62 C 596.77 306.42 604.38 306.53 609.68 301.70 C 613.39 298.34 616.98 294.58 619.17 290.04 C 617.73 286.70 615.33 283.90 613.71 280.64 Z" />
<path fill="#020202" d=" M 531.57 355.57 C 534.90 353.31 539.07 353.23 542.95 353.57 C 561.13 355.08 579.30 356.79 597.52 357.81 C 609.88 358.96 622.32 358.34 634.72 358.73 C 642.15 359.14 649.59 365.09 649.81 372.86 C 650.10 375.45 646.90 377.53 644.63 376.34 C 640.56 374.13 637.86 369.44 632.96 368.86 C 620.87 367.39 608.92 365.01 596.82 363.60 C 581.00 361.73 565.16 359.94 549.29 358.55 C 545.00 358.35 540.66 357.85 536.40 358.50 C 531.16 359.68 529.88 366.87 524.22 367.05 C 523.17 361.85 527.72 358.11 531.57 355.57 Z" />
<path fill="#020202" d=" M 541.14 402.80 C 569.72 398.70 598.95 400.88 627.09 406.98 C 630.98 407.82 634.94 408.69 638.46 410.66 C 635.99 410.62 633.53 410.40 631.14 409.85 C 606.00 404.09 579.95 401.99 554.26 404.37 C 547.16 404.79 540.24 406.66 533.16 407.15 C 533.91 403.32 538.08 403.41 541.14 402.80 Z" />
<path fill="#fefefe" d=" M 467.30 449.76 C 472.97 458.01 478.05 466.73 484.76 474.23 C 487.36 477.38 490.63 479.93 493.06 483.23 C 493.72 486.10 493.41 489.08 493.47 492.01 C 493.45 503.34 493.37 514.68 493.47 526.01 C 493.32 530.59 496.05 534.96 500.21 536.89 C 508.00 540.72 517.11 539.17 525.11 536.84 C 535.46 533.60 545.71 530.05 556.02 526.69 C 559.32 525.67 562.54 524.24 566.00 523.80 C 570.37 525.07 574.41 527.40 578.96 528.12 C 586.85 529.35 595.21 529.00 602.60 525.70 C 604.91 524.95 607.29 523.13 609.81 524.12 C 623.21 528.29 636.43 533.06 649.86 537.16 C 657.58 539.30 666.33 540.57 673.77 536.82 C 677.84 534.88 680.46 530.55 680.40 526.06 C 680.54 512.70 680.36 499.33 680.42 485.98 C 680.02 482.54 683.11 480.41 685.14 478.15 C 693.69 469.86 699.68 459.47 706.62 449.90 C 705.56 470.64 703.00 491.29 700.63 511.92 C 694.57 561.31 685.79 610.45 672.55 658.44 C 660.57 701.15 645.27 743.33 622.51 781.56 C 612.49 797.84 601.53 814.00 586.81 826.42 C 575.29 816.75 566.20 804.59 557.86 792.17 C 539.52 764.28 526.06 733.50 514.90 702.14 C 489.08 627.98 476.39 549.96 468.88 472.01 C 468.26 464.60 467.25 457.21 467.30 449.76 Z" />
</svg>
